<svg width="247" height="111" viewBox="0 0 247 111" fill="none" xmlns="http://www.w3.org/2000/svg">
<path d="M247 53.2595C245.455 54.673 243.598 55.5714 241.67 56.35C239.477 57.3802 238.04 57.9432 235.932 58.626C233.177 59.6322 230.338 60.1113 227.427 59.6322C226.457 59.4765 225.438 59.0692 224.636 58.5062C223.055 57.3922 222.731 55.9907 223.354 54.146C223.402 53.9902 223.426 53.8345 223.51 53.4871C223.127 53.6309 222.851 53.6788 222.635 53.8225C219.892 55.7032 217.149 57.5719 214.43 59.4765C211.915 61.2373 210.992 61.968 208.465 63.7289C207.974 64.0643 205.817 65.346 205.266 65.5856C204.248 66.0288 203.29 65.8371 202.499 65.1184C201.721 64.4117 201.517 63.0341 201.984 61.6805C202.583 60.0754 203.17 59.2848 203.949 57.7515C204.356 56.949 204.967 56.2542 205.542 55.5594C206.237 54.709 206.273 53.8704 205.817 52.8882C205.194 51.5466 205.398 50.217 206.201 48.9832C206.344 48.7556 206.584 48.5399 206.776 48.4202C207.411 48.0129 207.997 47.941 208.501 48.2405C208.884 48.5759 208.8 49.3066 208.56 49.7019C208.381 50.217 208.009 50.732 207.59 51.1034C206.848 51.7622 206.728 52.5528 207.111 53.3434C207.854 54.8767 207.087 56.0146 206.32 57.1885C205.326 58.6978 204.248 60.1592 203.41 61.7404C203.038 62.4472 202.799 63.2617 203.086 64.244C203.314 65.0465 203.901 65.4299 204.763 64.9507C206.213 64.1601 207.638 63.3336 209.004 62.4352C213.304 59.5723 217.568 56.6735 221.857 53.7866C223.222 52.8762 224.612 52.0018 225.989 51.1154C227.223 50.3248 228.589 50.0493 230.014 50.2529C230.41 50.3128 230.925 50.6482 231.056 50.9956C231.164 51.2711 230.889 51.87 230.613 52.1096C229.559 53.6788 228.014 53.7387 226.445 53.9303C225.438 54.0501 224.947 54.4454 224.732 55.4037C224.408 56.8412 224.827 57.5359 225.534 58.075C227.223 58.9973 229.02 59.3926 230.937 59.165C234.386 58.7577 237.633 57.6797 240.771 56.2662C242.867 55.3318 244.904 54.2897 246.964 53.2835L247 53.2595ZM229.811 51.5586C228.9 51.2232 227.115 52.0377 226.816 52.9122C227.822 53.2835 229.415 52.5648 229.811 51.5586ZM122.506 46.7551C119.379 48.3243 116.121 49.5342 112.767 50.4805C110.096 51.2351 107.341 51.4508 104.586 51.2351C103.34 51.1393 102.489 51.5346 101.867 52.6247C101.399 53.4512 100.669 54.146 100.705 55.2001C100.705 55.3678 100.585 55.5594 100.489 55.7271C99.6505 57.1047 98.7521 58.4463 97.9974 59.8718C97.4584 60.9139 97.1709 62.0758 96.6678 63.1419C96.1527 64.22 95.4699 65.2262 94.9429 66.3043C94.4997 67.2147 94.1523 68.173 93.7809 69.1193C93.0982 70.8442 92.4154 72.5691 91.7446 74.2941C91.6607 74.4977 91.6008 74.7373 91.6248 74.9409C91.7805 75.9471 91.3014 76.7138 90.6905 77.4085C89.9717 78.235 89.6483 79.2173 89.6004 80.2834C89.5525 81.3854 89.2889 82.3916 88.6301 83.302C88.4504 83.5536 88.4145 83.9129 88.3307 84.2244C88.0192 85.3863 87.7197 86.5482 87.4203 87.7222C87.2166 88.5127 87.013 89.3033 86.7974 90.0939C86.6656 90.585 86.4979 91.0762 86.3542 91.5673C86.2104 92.0704 86.0427 92.5615 85.9828 93.0766C85.8151 94.6099 85.6594 96.1431 85.5756 97.6764C85.5396 98.3472 85.6594 99.03 85.7552 99.7008C85.899 100.707 86.0068 101.725 86.2703 102.707C87.0609 105.654 88.5343 108.122 91.3852 109.523C92.4393 110.038 93.5414 109.955 94.5356 109.296C95.1465 108.888 95.7095 108.397 96.3084 107.954C96.56 107.762 96.8235 107.607 97.135 107.499C96.4761 109.08 95.2304 109.943 93.6013 110.17C90.3191 110.625 88.4984 109.475 86.3901 106.193C84.8449 103.786 84.2459 101.03 83.8506 98.2394C83.7548 97.5566 83.647 96.8738 83.5392 96.1911C83.1798 93.963 83.9465 91.8907 84.4376 89.7825C84.6772 88.7403 84.8808 87.6862 85.1084 86.6441C85.2402 86.0332 85.4079 85.4222 85.5396 84.7994C85.6954 84.0327 85.8391 83.2661 85.9948 82.4995C86.0427 82.2958 86.1146 82.0802 86.1984 81.8885C86.438 81.3495 86.7495 80.8224 86.9531 80.2714C88.1031 77.0492 89.1811 73.8029 90.6306 70.6885C91.4331 68.9636 91.8284 67.035 92.4992 65.2502C92.9065 64.1481 93.4935 63.118 94.0445 62.0758C94.5596 61.1056 95.1106 60.0993 95.4939 59.0572C95.6975 58.5062 95.7814 57.9671 96.3324 57.6437C96.4642 57.5719 96.6079 57.4042 96.6199 57.2604C96.7517 55.6672 97.9016 54.5532 98.5005 53.1877C99.3989 51.1633 99.5307 51.1154 97.2548 51.0195C94.6434 50.9117 92.044 50.6123 89.4566 50.3607C87.8994 50.205 86.3302 50.0493 84.785 49.8097C82.7007 49.4863 80.9278 50.0972 79.2149 51.2711C73.7406 55.0084 68.2664 58.7338 62.7203 62.3633C58.5757 65.0705 54.3232 67.598 50.1427 70.2333C44.0575 74.0785 38.0083 77.9955 31.8992 81.7927C28.3176 84.0207 24.4485 85.6259 20.4715 87.0513C16.7222 88.393 12.913 89.2195 8.93608 89.2075C6.55233 89.2075 4.31232 88.369 2.27595 87.219C0.598933 86.2488 0 84.5478 0 82.6911C0 81.9005 0.934336 80.9901 1.72493 80.9302C2.2999 80.8823 2.67124 81.1818 2.75509 81.7568C2.80301 82.0802 2.77905 82.4156 2.77905 82.751C2.80301 84.8832 3.5936 85.8415 5.53414 86.668C8.15747 87.7701 10.8048 87.6862 13.476 87.1591C16.1952 86.6201 18.9383 86.117 21.5856 85.3144C23.7058 84.6676 25.7302 83.6973 27.7186 82.7151C35.6605 78.822 43.0034 73.9107 50.4182 69.1313C57.1622 64.783 63.9062 60.4348 70.6382 56.0506C73.4532 54.2178 76.2202 52.3252 79.0113 50.4685C79.143 50.3727 79.3107 50.3008 79.4066 50.181C79.5144 50.0373 79.6581 49.8336 79.6222 49.6899C79.5982 49.5701 79.3586 49.4264 79.2029 49.4024C76.7353 48.9832 74.2677 48.5879 71.8001 48.1566C70.171 47.8691 68.5659 47.5098 66.9487 47.1983C65.0082 46.827 63.0677 46.3598 61.1032 46.1322C58.7314 45.8567 56.3237 45.6531 53.9399 45.677C51.6879 45.701 49.4479 46.0244 47.2079 46.3119C45.4111 46.5515 43.6023 46.815 41.8654 47.2942C37.9484 48.3483 34.3428 50.1331 31.2883 52.8163C30.2581 53.7147 29.0962 54.6491 28.617 56.0865C28.5452 56.3141 28.4014 56.5656 28.2217 56.7094C26.1973 58.3744 25.9098 60.5785 26.3171 62.9623C26.401 63.4893 26.7603 63.9565 26.928 64.4716C26.9999 64.6992 26.9041 64.9866 26.8921 65.2502C26.6645 65.2262 26.413 65.2502 26.1973 65.1783C24.8318 64.7471 24.0891 63.7768 23.8735 62.3753C23.8256 62.0998 23.7297 61.8482 23.6698 61.5727C23.4782 60.5665 23.3105 59.5843 23.8136 58.59C24.0891 58.063 24.149 57.4281 24.4005 56.8891C24.6641 56.3381 25.0234 55.8349 25.3948 55.3318C25.85 54.7209 26.3171 54.11 26.8322 53.547C27.2275 53.1158 27.6348 52.5887 28.1379 52.3971C28.9524 52.0737 29.5274 51.5586 30.0545 50.8997C30.294 50.6123 30.6774 50.4326 31.0128 50.2289C31.7554 49.7737 32.546 49.3784 33.2528 48.8753C34.8579 47.7374 36.5469 46.8749 38.5593 46.6353C39.9608 46.4676 41.3384 46.0005 42.7159 45.6171C45.2194 44.9104 47.7949 44.6109 50.3823 44.4912C54.5748 44.2875 58.7553 44.5031 62.876 45.3656C65.4874 45.9046 68.0508 46.6353 70.6621 47.2103C73.0579 47.7254 75.4656 48.1446 77.8733 48.5998C78.1488 48.6478 78.4363 48.6238 78.6878 48.7076C80.5805 49.3784 82.0299 48.6478 83.5272 47.5098C87.2765 44.6708 91.1576 42.0116 94.9309 39.2086C100.765 34.8843 106.562 30.5121 112.336 26.1159C113.306 25.3852 114.121 24.4508 115.019 23.6123C115.223 23.4207 115.45 23.2769 115.666 23.1092C115.834 22.9775 116.073 22.8697 116.157 22.69C116.576 21.8515 117.008 21.013 117.331 20.1266C117.583 19.4318 117.882 18.8448 118.493 18.3777C118.984 18.0063 119.427 17.5152 119.775 17.0001C120.673 15.6944 121.5 14.3528 122.35 13.0232C122.374 12.9753 122.41 12.9154 122.446 12.8914C123.692 12.3883 123.967 11.0827 124.734 10.1843C125.5 9.28587 126.183 8.29164 127.046 7.50104C129.322 5.42874 131.669 3.44028 134.005 1.42786C135.167 0.433634 136.569 0.0503165 138.054 0.0024019C139.743 -0.0574914 140.402 1.00861 139.695 2.54188C138.653 4.8298 136.928 6.55473 135.107 8.20779C132.244 10.7952 129.394 13.3826 126.495 15.9101C124.985 17.2277 123.296 18.3417 121.811 19.6833C121.092 20.3302 120.637 21.3005 120.074 22.127C119.679 22.702 119.307 23.3009 118.924 23.8879C118.768 24.1394 118.625 24.4029 118.457 24.6545C118.241 25.0019 118.074 25.4331 117.762 25.6607C117.175 26.0919 116.936 26.6789 116.588 27.2898C115.834 28.6434 114.875 29.8892 114.061 31.2068C113.642 31.8896 113.342 32.6562 112.959 33.363C112.671 33.89 112.324 34.3692 112.024 34.8843C111.713 35.4233 111.426 35.9623 111.15 36.5134C111.042 36.729 111.006 36.9925 110.886 37.1961C110.12 38.5138 109.341 39.8434 108.539 41.1491C107.928 42.1433 107.245 43.0896 106.67 44.0839C106.347 44.6469 106.227 45.3297 105.903 45.8927C105.221 47.0785 104.478 48.2405 103.747 49.3904C103.256 50.1571 103.448 50.5763 104.346 50.6482C107.568 50.8878 110.695 50.3966 113.809 49.5941C116.433 48.9233 118.864 47.7853 121.356 46.7671C121.691 46.6353 122.063 46.6114 122.41 46.5275C122.422 46.6114 122.446 46.6833 122.458 46.7671L122.506 46.7551ZM84.3897 47.7374C83.9944 48.0129 83.7189 48.4681 83.3954 48.8394C83.8746 48.9951 84.3418 49.2587 84.8329 49.2946C88.5103 49.63 92.1878 49.9295 95.8532 50.2409C96.7277 50.3128 97.6141 50.4206 98.4886 50.4326C99.6984 50.4445 99.938 50.169 100.429 49.055C100.908 47.965 101.519 46.9348 102.082 45.8807C102.13 45.7848 102.25 45.7369 102.31 45.6411C102.573 45.2338 102.825 44.8266 103.064 44.4073C103.615 43.4011 104.142 42.3709 104.717 41.3647C105.161 40.5861 105.7 39.8554 106.131 39.0768C106.562 38.2982 106.898 37.4597 107.293 36.6571C107.592 36.0462 108.095 35.4832 108.215 34.8363C108.371 33.9859 108.838 33.4229 109.329 32.788C110.024 31.8896 110.623 30.9073 111.198 29.9251C111.617 29.2064 111.917 28.4158 112.324 27.5294C112.108 27.6012 111.929 27.6372 111.797 27.733C110.982 28.284 110.144 28.8231 109.353 29.422C104.346 33.2432 99.3989 37.1363 94.3439 40.8856L84.3777 47.7733L84.3897 47.7374ZM124.339 16.0418C124.422 16.1257 124.518 16.2215 124.602 16.3054C124.902 16.1377 125.249 16.0299 125.488 15.8023C129.226 12.3045 132.987 8.83068 136.641 5.24906C137.527 4.37461 138.03 3.10488 138.665 1.99086C138.773 1.7992 138.737 1.32005 138.617 1.24818C138.413 1.1284 138.078 1.22423 137.803 1.26016C137.647 1.28412 137.491 1.37995 137.359 1.48776C135.527 3.02102 133.694 4.55429 131.873 6.09954C131.693 6.25526 131.598 6.50682 131.466 6.71045C131.106 7.21356 130.771 7.72864 130.388 8.20779C130.184 8.45934 129.897 8.651 129.681 8.89057C128.914 9.74105 128.148 10.5796 127.417 11.466C127.022 11.9571 126.686 12.5081 126.351 13.0472C126.123 13.4185 125.992 13.8497 125.752 14.1971C125.309 14.832 124.818 15.4189 124.35 16.0299L124.339 16.0418ZM156.142 70.1135C155.89 69.8979 155.579 69.7302 155.387 69.4667C154.453 68.185 154.058 66.6996 154.297 65.1783C154.585 63.4294 155.1 61.7045 155.579 59.9915C155.818 59.1171 156.789 56.8292 157.016 56.2183C155.759 56.7932 154.261 57.488 153.207 57.9911C149.554 59.716 146.607 61.2373 142.69 62.2675C140.15 62.9383 136.796 63.5252 134.173 63.2977C131.31 63.0581 128.819 62.8425 126.399 61.1894C124.698 60.0275 123.728 57.7875 123.799 55.7391C123.871 53.4991 124.554 51.4028 125.429 49.3784C128.184 43.0417 132.34 37.6873 136.94 32.5844C140.941 28.1523 145.637 24.5587 150.284 20.9171C155.1 17.1319 160.334 13.8857 166.216 11.9212C168.288 11.2264 170.42 10.5197 172.601 10.3879C174.026 10.3041 174.817 10.3639 175.859 10.6634C177.608 11.1665 178.482 13.3227 177.895 15.2153C177.308 17.096 176.194 18.6532 174.936 20.1266C168.684 27.4575 161.305 33.4468 153.171 38.5497C147.445 42.1553 141.54 45.4375 135.431 48.3363C132.927 49.5222 130.304 50.4445 127.716 51.4148C126.507 51.87 125.297 53.1637 125.105 54.5053C124.913 55.787 125.069 56.4339 125.393 57.7515C126.039 59.3567 127.01 60.6623 128.639 61.3332C132.628 62.9862 136.7 62.9862 140.869 61.968C144.726 61.3571 152.668 57.488 156.118 56.0266C157.148 55.6553 157.807 54.9605 158.418 54.0381C160.227 51.319 162.059 48.5998 164.108 46.0604C169.833 38.993 176.014 32.3448 182.974 26.4393C186.675 23.3009 190.664 20.5698 194.905 18.2219C195.707 17.7787 196.642 17.5152 197.552 17.3595C199.133 17.096 199.972 17.9944 199.66 19.5156C199.397 20.8213 198.798 22.139 198.067 23.265C195.096 27.8528 191.191 31.6141 187.155 35.2436C180.219 41.4845 172.589 46.7671 164.755 51.7862C163.054 52.8762 161.233 53.7986 159.448 54.7449C158.478 55.26 157.879 56.0865 157.543 57.0448C156.645 59.6322 155.663 62.2196 155.052 64.8788C154.597 66.8913 154.752 68.1251 156.298 69.9099C156.262 69.9698 156.214 70.0177 156.178 70.0776L156.142 70.1135ZM177.392 14.0773C177.392 12.1248 175.931 10.9269 174.242 10.9269C172.684 10.9269 171.606 11.0707 170.109 11.442C165.976 12.4722 162.191 14.3648 158.538 16.5449C154.297 19.0844 150.596 22.3546 146.763 25.4331C140.701 30.3084 135.227 35.7108 131.059 42.335C129.417 44.9463 126.159 51.3909 126.147 51.6784C126.399 51.6544 127.177 51.295 127.405 51.1872C131.262 49.4623 135.203 47.8931 138.94 45.9526C148.547 40.9694 157.831 35.4712 166.06 28.3679C169.666 25.2534 173.02 21.8754 175.787 17.9704C176.661 16.7366 177.428 15.4189 177.392 14.0773ZM159.232 54.2657C159.472 54.2058 164.192 51.6424 166.06 50.4805C173.918 45.5692 181.022 39.6638 187.981 33.5786C191.91 30.1407 195.48 26.3555 198.103 21.8036C198.63 20.8932 198.798 20.4859 199.121 19.4677C199.313 18.8688 199.157 17.9704 198.474 17.9704C197.492 17.9704 196.282 18.4495 195.384 19.0006C192.605 20.7135 189.802 22.4265 187.226 24.4269C177.787 31.7459 169.378 40.107 162.263 49.7258C161.305 51.0195 159.196 54.1819 159.232 54.2538V54.2657ZM177.739 57.512C177.835 57.3562 177.895 57.1766 178.015 57.0328C179.357 55.5355 180.698 54.0262 182.064 52.5528C182.723 51.8341 182.998 51.0794 182.615 50.6841C182.219 50.2649 181.453 50.3607 180.71 51.0794C179.38 52.3611 178.111 53.6788 176.853 55.0324C176.494 55.4277 176.206 55.9308 176.002 56.4339C175.439 57.8354 176.326 58.9374 177.787 58.626C178.578 58.4583 179.404 58.2067 180.087 57.7875C181.728 56.7813 182.818 56.1224 184.423 55.0563C184.663 54.9006 185.418 54.3736 185.693 54.2777C185.645 54.8886 185.454 55.3079 185.31 55.7391C184.699 57.5239 185.07 59.2608 186.879 60.1473C189.179 61.2733 191.515 61.0696 193.863 60.315C196.139 59.5843 198.127 58.2906 200.056 56.937C201.134 56.1823 204.703 53.4153 205.745 52.6127C205.698 52.5528 205.674 52.421 205.626 52.3611C205.47 52.445 202.739 54.5413 202.595 54.6371C199.924 56.4578 197.36 58.4583 194.258 59.5483C191.982 60.3509 189.706 60.5306 187.394 59.7041C186.292 59.3088 185.825 58.4463 186.089 57.2963C186.52 55.4636 187.37 53.8585 188.664 52.4929C189.131 52.0018 189.562 51.4627 189.97 50.8997C190.077 50.756 190.089 50.3607 190.006 50.3128C189.826 50.205 189.538 50.169 189.323 50.2289C189.131 50.2768 188.975 50.4805 188.796 50.6123C186.999 52.0497 185.238 53.547 183.381 54.9126C182.088 55.8589 180.674 56.6735 179.261 57.464C178.841 57.7036 178.266 57.6557 177.763 57.7396C177.739 57.6557 177.715 57.5719 177.691 57.488L177.739 57.512ZM206.416 51.5825C206.416 51.5825 207.83 50.0852 208.033 49.4623C208.237 48.8394 208.009 48.48 207.494 48.7436C206.979 49.0071 205.901 51.1034 206.416 51.5945V51.5825Z" fill="#333366"/>
<path d="M109.324 92.2412C109.324 91.5464 109.456 90.8876 109.708 90.2887C109.959 89.6897 110.306 89.1627 110.762 88.7075C111.205 88.2643 111.732 87.9049 112.343 87.6414C112.942 87.3779 113.589 87.2461 114.271 87.2461C114.954 87.2461 115.625 87.3779 116.224 87.6294C116.823 87.881 117.35 88.2283 117.781 88.6835C118.224 89.1387 118.56 89.6658 118.811 90.2767C119.063 90.8876 119.195 91.5464 119.195 92.2532C119.195 92.9599 119.063 93.6068 118.811 94.2297C118.56 94.8406 118.212 95.3796 117.781 95.8228C117.338 96.278 116.823 96.6254 116.224 96.8769C115.625 97.1285 114.966 97.2603 114.271 97.2603C113.577 97.2603 112.954 97.1285 112.343 96.865C111.744 96.6014 111.217 96.2421 110.786 95.7989C110.342 95.3556 109.995 94.8286 109.731 94.2177C109.468 93.6187 109.336 92.9599 109.336 92.2651L109.324 92.2412ZM118.2 92.2412C118.2 91.6303 118.129 91.0433 117.973 90.5043C117.817 89.9533 117.59 89.4741 117.266 89.0549C116.943 88.6356 116.547 88.3122 116.044 88.0726C115.553 87.833 114.954 87.7133 114.247 87.7133C113.541 87.7133 112.942 87.833 112.439 88.0606C111.936 88.2882 111.516 88.6117 111.193 89.0189C110.869 89.4262 110.618 89.9054 110.474 90.4683C110.318 91.0313 110.247 91.6183 110.247 92.2651C110.247 92.912 110.33 93.487 110.498 94.038C110.666 94.589 110.905 95.0682 111.241 95.4874C111.576 95.9067 111.983 96.2301 112.487 96.4577C112.99 96.6853 113.577 96.8051 114.259 96.8051C114.942 96.8051 115.553 96.6853 116.056 96.4457C116.547 96.2061 116.955 95.8827 117.278 95.4754C117.59 95.0682 117.829 94.589 117.985 94.026C118.141 93.463 118.212 92.8761 118.212 92.2651L118.2 92.2412Z" fill="#333366"/>
<path d="M122.622 88.1789V87.7477H124.646V84.3577C124.646 83.5072 124.993 82.8364 125.7 82.3693C126.407 81.9021 127.401 81.6505 128.683 81.6625C129.833 81.6625 131.102 81.974 132.121 82.4771V82.9562C131.953 82.9083 130.839 82.2016 128.731 82.1536C128.168 82.1417 127.581 82.2255 127.209 82.3573C126.802 82.489 126.443 82.6088 126.095 82.9802C125.88 83.2197 125.736 83.4953 125.652 83.8067C125.568 84.1181 125.532 84.4176 125.532 84.7291V87.7477H131.438V88.1789H125.58V101.236H124.658V88.1789H122.634H122.622Z" fill="#333366"/>
<path d="M144.039 81.7578H150.866C152.16 81.7578 153.37 81.9495 154.496 82.3208C155.622 82.6921 156.592 83.2432 157.431 83.9619C158.269 84.6806 158.928 85.555 159.419 86.5732C159.91 87.5914 160.15 88.7534 160.15 90.059C160.15 91.3647 159.91 92.4907 159.419 93.5209C158.928 94.551 158.269 95.4374 157.431 96.1681C156.592 96.9108 155.61 97.4738 154.472 97.8571C153.334 98.2524 152.136 98.4441 150.866 98.4441H144.039V81.7698V81.7578ZM150.819 97.8452C153.442 97.8452 155.43 97.1863 156.784 95.8687C158.137 94.551 158.808 92.6105 158.808 90.047C158.808 87.4836 158.137 85.5191 156.784 84.2134C155.43 82.9078 153.442 82.2489 150.819 82.2489H145.201V97.8452H150.819Z" fill="#333366"/>
<path d="M166.453 98.4321V81.7578H178.024V82.2609H167.615V89.6877H176.946V90.3106H167.615V97.8571H178.372V98.4441H166.453V98.4321Z" fill="#333366"/>
<path d="M184.48 95.8928C184.851 96.2282 185.282 96.5157 185.773 96.7672C186.265 97.0188 186.768 97.2224 187.283 97.3661C187.798 97.5219 188.325 97.6297 188.84 97.7015C189.355 97.7734 189.834 97.8093 190.265 97.8093C190.781 97.8093 191.344 97.7495 191.931 97.6416C192.517 97.5338 193.068 97.3302 193.572 97.0547C194.075 96.7792 194.482 96.4078 194.805 95.9287C195.117 95.4615 195.285 94.8626 195.285 94.1319C195.285 93.4611 195.105 92.9221 194.745 92.5028C194.386 92.0835 193.919 91.7481 193.344 91.4966C193.08 91.3528 192.805 91.245 192.505 91.1612C192.206 91.0773 191.895 90.9815 191.583 90.8737C191.236 90.7659 190.9 90.6701 190.565 90.5982C190.23 90.5263 189.894 90.4545 189.547 90.3706C188.852 90.2029 188.205 90.0112 187.606 89.8076C186.995 89.604 186.468 89.3404 186.013 89.017C185.546 88.6936 185.187 88.2983 184.911 87.8311C184.635 87.364 184.504 86.777 184.504 86.0822C184.504 85.2797 184.671 84.5969 185.019 84.0339C185.366 83.4829 185.821 83.0157 186.396 82.6563C186.971 82.297 187.63 82.0335 188.361 81.8897C189.092 81.734 189.846 81.6621 190.625 81.6621C192.494 81.6621 194.242 82.1652 195.848 83.1594L195.548 83.6625C194.745 83.2193 193.955 82.8959 193.188 82.6803C192.422 82.4647 191.535 82.3689 190.529 82.3689C189.978 82.3689 189.415 82.4287 188.84 82.5366C188.265 82.6444 187.75 82.848 187.283 83.1355C186.816 83.423 186.444 83.8063 186.157 84.2854C185.869 84.7526 185.726 85.3515 185.726 86.0822C185.726 86.6093 185.845 87.0525 186.073 87.3999C186.301 87.7473 186.588 88.0348 186.935 88.2743C187.283 88.5139 187.678 88.7056 188.121 88.8613C188.565 89.017 189.008 89.1488 189.439 89.2566C189.75 89.3644 190.086 89.4602 190.433 89.5441C190.781 89.6279 191.128 89.7118 191.475 89.7956C192.17 89.9633 192.817 90.155 193.44 90.3586C194.063 90.5623 194.602 90.8258 195.057 91.1492C195.512 91.4726 195.883 91.8679 196.159 92.3351C196.434 92.8023 196.566 93.3772 196.566 94.0481C196.566 94.8267 196.387 95.4975 196.027 96.0485C195.668 96.5995 195.189 97.0667 194.602 97.426C194.015 97.7854 193.344 98.0489 192.589 98.1927C191.835 98.3484 191.08 98.4203 190.301 98.4203C189.092 98.4203 187.966 98.2406 186.935 97.8812C185.893 97.5219 184.947 96.9469 184.084 96.1683L184.468 95.8808L184.48 95.8928Z" fill="#333366"/>
<path d="M203.476 81.6738H204.638V98.432H203.476V81.6738Z" fill="#333366"/>
<path d="M226.802 96.0967C226.802 96.0967 226.706 96.1565 226.67 96.1805C226.443 96.3482 226.203 96.5159 225.976 96.6836C225.748 96.8513 225.508 97.007 225.281 97.1388C224.526 97.6659 223.736 98.0132 222.909 98.157C222.071 98.3127 221.184 98.3846 220.226 98.3846C219.076 98.3846 217.974 98.157 216.92 97.7138C215.866 97.2706 214.943 96.6716 214.129 95.917C213.326 95.1623 212.691 94.2879 212.224 93.2697C211.757 92.2515 211.529 91.1734 211.529 90.0355C211.529 88.8975 211.757 87.8194 212.224 86.8012C212.679 85.783 213.314 84.8966 214.105 84.13C214.895 83.3633 215.818 82.7644 216.872 82.3212C217.926 81.878 219.04 81.6504 220.214 81.6504C221.567 81.6504 222.741 81.8061 223.76 82.1056C224.766 82.417 225.736 82.98 226.658 83.8185L226.311 84.1899C225.652 83.555 224.79 83.0519 223.736 82.7045C222.681 82.3571 221.735 82.1774 220.909 82.1774C219.819 82.1774 218.764 82.3811 217.782 82.7764C216.788 83.1837 215.913 83.7347 215.171 84.4414C214.416 85.1482 213.829 85.9867 213.374 86.945C212.931 87.9033 212.703 88.9214 212.703 90.0115C212.703 91.1016 212.931 92.1197 213.374 93.078C213.817 94.0363 214.416 94.8748 215.171 95.5816C215.913 96.2883 216.788 96.8513 217.782 97.2466C218.776 97.6539 219.819 97.8455 220.909 97.8455C221.651 97.8455 222.43 97.7377 223.244 97.5101C224.047 97.2825 224.754 96.9711 225.365 96.5518L225.532 96.4321V90.0953H226.79V96.0607L226.802 96.0967Z" fill="#333366"/>
<path d="M233.71 98.4321V81.7578H234.19L246.025 96.3119V81.7578H246.588V98.4321H246.24L234.321 83.9259V98.4321H233.722H233.71Z" fill="#333366"/>
</svg>
