<svg width="25" height="26" viewBox="0 0 25 26" fill="none" xmlns="http://www.w3.org/2000/svg">
<path d="M11.2874 0.355817C11.5179 0.127521 11.8292 -0.000551741 12.1536 -0.000551755C12.478 -0.000551769 12.7893 0.127521 13.0198 0.355817L23.9616 11.2976C24.1847 11.531 24.3098 11.841 24.3112 12.1638C24.3104 12.3252 24.2795 12.485 24.22 12.6349C24.127 12.8562 23.9705 13.045 23.7704 13.1775C23.5703 13.31 23.3354 13.3803 23.0954 13.3796L13.3694 13.3796L13.3694 24.3214C13.3694 24.6438 13.2413 24.953 13.0133 25.181C12.7853 25.409 12.4761 25.5371 12.1536 25.5371C11.8312 25.5371 11.5219 25.409 11.294 25.181C11.066 24.953 10.9379 24.6438 10.9379 24.3214L10.9379 13.3796L1.21184 13.3796C0.971816 13.3803 0.736944 13.31 0.536819 13.1775C0.336694 13.045 0.180271 12.8562 0.0872636 12.6349C-0.000325952 12.4104 -0.0225462 12.1656 0.023173 11.9289C0.0688923 11.6923 0.180683 11.4734 0.345611 11.2976L11.2874 0.355817Z" fill="#342B2B"/>
</svg>
