<svg width="235" height="105" viewBox="0 0 235 105" fill="none" xmlns="http://www.w3.org/2000/svg">
<path d="M234.682 50.5344C233.216 51.8756 231.454 52.728 229.624 53.4668C227.544 54.4442 226.181 54.9784 224.18 55.6263C221.566 56.581 218.872 57.0356 216.111 56.581C215.19 56.4333 214.224 56.0468 213.462 55.5126C211.962 54.4556 211.655 53.1258 212.246 51.3755C212.292 51.2277 212.314 51.08 212.394 50.7504C212.03 50.8868 211.769 50.9322 211.564 51.0686C208.961 52.853 206.359 54.6261 203.779 56.4333C201.392 58.104 200.517 58.7973 198.119 60.4681C197.653 60.7863 195.607 62.0025 195.084 62.2298C194.118 62.6503 193.209 62.4685 192.458 61.7865C191.72 61.1159 191.526 59.8089 191.97 58.5246C192.538 57.0015 193.095 56.2514 193.834 54.7966C194.22 54.0351 194.8 53.3759 195.345 52.7167C196.005 51.9097 196.039 51.1141 195.607 50.1821C195.016 48.9091 195.209 47.6475 195.97 46.4768C196.107 46.2609 196.334 46.0563 196.516 45.9427C197.118 45.5562 197.675 45.488 198.153 45.7722C198.516 46.0904 198.437 46.7837 198.209 47.1588C198.039 47.6475 197.687 48.1362 197.289 48.4886C196.584 49.1137 196.471 49.8638 196.834 50.614C197.539 52.0688 196.811 53.1486 196.084 54.2624C195.141 55.6945 194.118 57.0811 193.322 58.5814C192.97 59.252 192.743 60.0248 193.015 60.9568C193.231 61.7183 193.788 62.082 194.607 61.6274C195.982 60.8773 197.334 60.093 198.63 59.2406C202.71 56.5242 206.757 53.7737 210.825 51.0345C212.121 50.1707 213.44 49.341 214.747 48.5C215.917 47.7498 217.213 47.4884 218.566 47.6816C218.941 47.7384 219.429 48.0567 219.554 48.3863C219.657 48.6477 219.395 49.216 219.134 49.4433C218.134 50.9322 216.667 50.9891 215.179 51.1709C214.224 51.2846 213.758 51.6596 213.553 52.5689C213.246 53.9328 213.644 54.592 214.315 55.1035C215.917 55.9786 217.622 56.3537 219.441 56.1377C222.714 55.7513 225.794 54.7284 228.772 53.3872C230.761 52.5007 232.693 51.5119 234.648 50.5572L234.682 50.5344ZM218.372 48.9205C217.509 48.6022 215.815 49.3751 215.531 50.2048C216.486 50.5572 217.997 49.8752 218.372 48.9205ZM116.558 44.3628C113.591 45.8517 110.5 46.9997 107.318 47.8976C104.783 48.6136 102.169 48.8182 99.5547 48.6136C98.3727 48.5227 97.5657 48.8978 96.9747 49.932C96.5314 50.7163 95.8381 51.3755 95.8722 52.3757C95.8722 52.5348 95.7586 52.7167 95.6676 52.8758C94.872 54.1828 94.0196 55.4558 93.3036 56.8083C92.7921 57.7971 92.5193 58.8996 92.0419 59.9112C91.5532 60.9341 90.9054 61.8888 90.4053 62.9117C89.9848 63.7755 89.6551 64.6848 89.3028 65.5827C88.655 67.2194 88.0071 68.856 87.3706 70.4927C87.2911 70.6859 87.2342 70.9132 87.257 71.1064C87.4047 72.0612 86.9501 72.7886 86.3704 73.4478C85.6885 74.232 85.3816 75.164 85.3362 76.1756C85.2907 77.2212 85.0406 78.1759 84.4155 79.0397C84.245 79.2784 84.2109 79.6194 84.1314 79.9149C83.8359 81.0174 83.5517 82.1199 83.2676 83.2337C83.0744 83.9838 82.8811 84.734 82.6766 85.4841C82.5515 85.9501 82.3924 86.4161 82.256 86.8821C82.1196 87.3595 81.9605 87.8255 81.9037 88.3142C81.7446 89.769 81.5968 91.2238 81.5173 92.6786C81.4832 93.3151 81.5968 93.963 81.6877 94.5995C81.8241 95.5542 81.9264 96.5203 82.1765 97.4523C82.9266 100.248 84.3246 102.59 87.0297 103.919C88.0298 104.408 89.0755 104.329 90.0188 103.703C90.5985 103.317 91.1327 102.851 91.701 102.43C91.9397 102.249 92.1897 102.101 92.4852 101.999C91.8601 103.499 90.6781 104.317 89.1323 104.533C86.0181 104.965 84.2905 103.874 82.2901 100.76C80.824 98.4752 80.2557 95.8611 79.8806 93.2128C79.7897 92.565 79.6874 91.9171 79.5851 91.2693C79.2441 89.1553 79.9715 87.189 80.4375 85.1886C80.6648 84.1998 80.8581 83.1996 81.074 82.2108C81.199 81.6311 81.3581 81.0515 81.4832 80.4605C81.6309 79.733 81.7673 79.0056 81.9151 78.2782C81.9605 78.085 82.0287 77.8804 82.1083 77.6986C82.3356 77.1871 82.6311 76.687 82.8243 76.1642C83.9154 73.1068 84.9384 70.0267 86.3136 67.0716C87.0751 65.4349 87.4502 63.605 88.0867 61.9115C88.4731 60.8659 89.03 59.8884 89.5529 58.8996C90.0416 57.979 90.5644 57.0243 90.9281 56.0354C91.1213 55.5126 91.2009 55.0012 91.7237 54.6943C91.8487 54.6261 91.9851 54.467 91.9965 54.3306C92.1215 52.8189 93.2126 51.7619 93.7809 50.4662C94.6333 48.5454 94.7584 48.5 92.5989 48.409C90.1211 48.3067 87.6548 48.0226 85.1998 47.7839C83.7222 47.6362 82.2333 47.4884 80.7671 47.2611C78.7895 46.9542 77.1073 47.5339 75.482 48.6477C70.2879 52.1938 65.0938 55.7286 59.8314 59.1724C55.8989 61.7411 51.864 64.1392 47.8974 66.6397C42.1236 70.2881 36.3839 74.0047 30.5873 77.6077C27.189 79.7217 23.5178 81.2447 19.7444 82.5972C16.1869 83.8702 12.5726 84.6544 8.79917 84.6431C6.53738 84.6431 4.41198 83.8475 2.47981 82.7563C0.8886 81.8357 0.320312 80.2218 0.320312 78.4601C0.320312 77.7099 1.20684 76.8461 1.95698 76.7893C2.50254 76.7439 2.85488 77.028 2.93444 77.5736C2.9799 77.8804 2.95717 78.1987 2.95717 78.5169C2.9799 80.54 3.73004 81.4493 5.57129 82.2335C8.06039 83.2792 10.5722 83.1996 13.1068 82.6995C15.6868 82.1881 18.2896 81.7107 20.8014 80.9492C22.8131 80.3354 24.734 79.4148 26.6207 78.4828C34.1562 74.7889 41.1234 70.129 48.1588 65.594C54.5577 61.4683 60.9566 57.3425 67.3442 53.1826C70.0151 51.4437 72.6406 49.6479 75.2888 47.8862C75.4138 47.7953 75.573 47.7271 75.6639 47.6134C75.7662 47.477 75.9026 47.2838 75.8685 47.1474C75.8458 47.0338 75.6184 46.8974 75.4707 46.8747C73.1293 46.4769 70.788 46.1018 68.4466 45.6926C66.9009 45.4198 65.3779 45.0789 63.8435 44.7834C62.0023 44.431 60.161 43.9877 58.297 43.7718C56.0466 43.5104 53.7621 43.3172 51.5003 43.3399C49.3635 43.3626 47.2381 43.6695 45.1128 43.9423C43.4079 44.1696 41.6917 44.4196 40.0436 44.8743C36.327 45.8745 32.9059 47.568 30.0077 50.1139C29.0302 50.9663 27.9277 51.8529 27.4731 53.2167C27.4049 53.4327 27.2685 53.6714 27.098 53.8078C25.1772 55.3876 24.9044 57.4789 25.2909 59.7407C25.3704 60.2408 25.7114 60.684 25.8705 61.1728C25.9387 61.3887 25.8478 61.6615 25.8364 61.9115C25.6205 61.8888 25.3818 61.9115 25.1772 61.8433C23.8815 61.4342 23.1768 60.5136 22.9723 59.1838C22.9268 58.9224 22.8359 58.6837 22.779 58.4223C22.5972 57.4675 22.4381 56.5355 22.9154 55.5922C23.1768 55.0921 23.2337 54.4897 23.4724 53.9783C23.7224 53.4554 24.0634 52.9781 24.4157 52.5007C24.8476 51.921 25.2909 51.3414 25.7796 50.8072C26.1547 50.398 26.5411 49.8979 27.0185 49.7161C27.7913 49.4092 28.3369 48.9205 28.837 48.2954C29.0643 48.0226 29.428 47.8521 29.7463 47.6589C30.4509 47.227 31.2011 46.8519 31.8716 46.3746C33.3947 45.2948 34.9972 44.4765 36.9067 44.2492C38.2365 44.09 39.5435 43.6468 40.8506 43.2831C43.226 42.6125 45.6697 42.3284 48.1247 42.2147C52.1027 42.0215 56.0693 42.2261 59.9792 43.0444C62.4569 43.5559 64.8892 44.2492 67.3669 44.7947C69.6401 45.2834 71.9246 45.6812 74.2091 46.1131C74.4705 46.1586 74.7433 46.1359 74.982 46.2154C76.7777 46.8519 78.153 46.1586 79.5737 45.0789C83.1312 42.3852 86.8137 39.862 90.3939 37.2024C95.929 33.0994 101.43 28.9509 106.908 24.7796C107.829 24.0863 108.602 23.1998 109.454 22.4042C109.647 22.2223 109.863 22.0859 110.068 21.9268C110.227 21.8018 110.454 21.6995 110.534 21.529C110.932 20.7334 111.341 19.9378 111.648 19.0967C111.887 18.4375 112.171 17.8806 112.75 17.4373C113.216 17.085 113.637 16.619 113.966 16.1303C114.819 14.8914 115.603 13.6185 116.41 12.3569C116.433 12.3114 116.467 12.2546 116.501 12.2318C117.683 11.7545 117.945 10.5156 118.672 9.66317C119.399 8.81074 120.047 7.86738 120.866 7.11724C123.025 5.15097 125.253 3.26425 127.469 1.3548C128.571 0.411446 129.901 0.047742 131.311 0.002279C132.913 -0.0545498 133.538 0.957002 132.868 2.41182C131.879 4.58268 130.242 6.21935 128.515 7.78782C125.798 10.2428 123.093 12.6978 120.343 15.096C118.911 16.3462 117.308 17.4032 115.899 18.6762C115.217 19.29 114.785 20.2106 114.251 20.9948C113.876 21.5404 113.523 22.1087 113.16 22.6656C113.012 22.9043 112.875 23.1543 112.716 23.393C112.512 23.7226 112.353 24.1318 112.057 24.3477C111.5 24.7569 111.273 25.3138 110.943 25.8935C110.227 27.1778 109.318 28.3598 108.545 29.6101C108.147 30.2579 107.863 30.9853 107.499 31.6559C107.227 32.156 106.897 32.6106 106.613 33.0994C106.317 33.6108 106.045 34.1223 105.783 34.6451C105.681 34.8497 105.647 35.0997 105.533 35.2929C104.806 36.5432 104.067 37.8048 103.305 39.0436C102.726 39.987 102.078 40.8849 101.532 41.8283C101.225 42.3624 101.112 43.0103 100.805 43.5445C100.157 44.6697 99.4524 45.7722 98.7591 46.8633C98.2931 47.5907 98.475 47.9885 99.3274 48.0567C102.385 48.284 105.351 47.818 108.306 47.0565C110.795 46.42 113.103 45.3403 115.467 44.3742C115.785 44.2492 116.137 44.2264 116.467 44.1469C116.478 44.2264 116.501 44.2946 116.512 44.3742L116.558 44.3628ZM80.3921 45.2948C80.017 45.5562 79.7556 45.9881 79.4487 46.3405C79.9033 46.4882 80.3466 46.7383 80.8126 46.7724C84.3019 47.0906 87.7912 47.3747 91.2691 47.6703C92.0988 47.7384 92.9398 47.8407 93.7695 47.8521C94.9175 47.8635 95.1448 47.6021 95.6108 46.545C96.0654 45.5108 96.6451 44.5333 97.1793 43.5331C97.2247 43.4422 97.3384 43.3967 97.3952 43.3058C97.6453 42.9194 97.8839 42.5329 98.1113 42.1351C98.6341 41.1804 99.1342 40.203 99.6797 39.2482C100.1 38.5095 100.612 37.8161 101.021 37.0774C101.43 36.3386 101.748 35.543 102.123 34.7815C102.408 34.2018 102.885 33.6676 102.999 33.0539C103.146 32.2469 103.59 31.7127 104.056 31.1103C104.715 30.2579 105.283 29.3259 105.829 28.3939C106.226 27.712 106.511 26.9618 106.897 26.1208C106.692 26.189 106.522 26.2231 106.397 26.314C105.624 26.8368 104.828 27.3483 104.078 27.9166C99.3274 31.5422 94.6333 35.2361 89.837 38.7936L80.3807 45.3289L80.3921 45.2948ZM118.297 15.221C118.376 15.3006 118.467 15.3915 118.547 15.4711C118.831 15.312 119.161 15.2097 119.388 14.9937C122.934 11.6749 126.503 8.37884 129.969 4.98048C130.811 4.15078 131.288 2.94601 131.89 1.88899C131.993 1.70714 131.958 1.25251 131.845 1.18432C131.652 1.07066 131.333 1.16159 131.072 1.19568C130.924 1.21841 130.776 1.30934 130.651 1.41163C128.912 2.86645 127.173 4.32127 125.446 5.78745C125.275 5.9352 125.184 6.17388 125.059 6.3671C124.718 6.84446 124.4 7.33319 124.037 7.78782C123.843 8.0265 123.571 8.20835 123.366 8.43567C122.639 9.24264 121.911 10.0382 121.218 10.8793C120.843 11.3453 120.525 11.8681 120.206 12.3796C119.99 12.7319 119.865 13.1411 119.638 13.4707C119.217 14.0731 118.751 14.63 118.308 15.2097L118.297 15.221ZM148.473 66.526C148.234 66.3215 147.939 66.1623 147.757 65.9123C146.87 64.6962 146.495 63.2868 146.723 61.8433C146.995 60.184 147.484 58.5473 147.939 56.922C148.166 56.0923 149.087 53.9214 149.303 53.3418C148.109 53.8873 146.689 54.5465 145.688 55.0239C142.222 56.6606 139.426 58.104 135.709 59.0815C133.3 59.718 130.117 60.2749 127.628 60.0589C124.912 59.8316 122.548 59.627 120.252 58.0586C118.638 56.9561 117.717 54.8307 117.785 52.8871C117.854 50.7617 118.501 48.7727 119.331 46.8519C121.945 40.8394 125.889 35.7589 130.254 30.9171C134.05 26.7118 138.505 23.3021 142.915 19.8469C147.484 16.2553 152.451 13.1752 158.032 11.3112C159.998 10.652 162.021 9.98141 164.089 9.85639C165.442 9.77683 166.192 9.83366 167.181 10.1178C168.84 10.5952 169.67 12.641 169.113 14.4368C168.556 16.2212 167.499 17.6988 166.306 19.0967C160.373 26.0526 153.372 31.7355 145.654 36.5773C140.221 39.9984 134.618 43.1126 128.822 45.8631C126.446 46.9883 123.957 47.8635 121.502 48.7841C120.354 49.216 119.206 50.4435 119.024 51.7165C118.842 52.9326 118.99 53.5463 119.297 54.7966C119.911 56.3196 120.831 57.5585 122.377 58.1949C126.162 59.7634 130.026 59.7634 133.982 58.7973C137.641 58.2177 145.177 54.5465 148.45 53.1599C149.428 52.8076 150.053 52.1484 150.632 51.2732C152.349 48.6932 154.088 46.1131 156.031 43.7036C161.464 36.9978 167.329 30.6898 173.932 25.0865C177.444 22.1087 181.229 19.5173 185.253 17.2896C186.014 16.8691 186.901 16.619 187.764 16.4713C189.265 16.2212 190.06 17.0736 189.765 18.5171C189.515 19.756 188.946 21.0062 188.253 22.0746C185.434 26.4277 181.729 29.9965 177.899 33.4403C171.318 39.3619 164.078 44.3742 156.645 49.1364C155.031 50.1707 153.303 51.0459 151.61 51.9438C150.689 52.4325 150.121 53.2167 149.803 54.126C148.95 56.581 148.018 59.036 147.439 61.5592C147.007 63.4687 147.154 64.6393 148.621 66.3328C148.587 66.3897 148.541 66.4351 148.507 66.4919L148.473 66.526ZM168.636 13.357C168.636 11.5044 167.249 10.3678 165.647 10.3678C164.169 10.3678 163.146 10.5042 161.725 10.8566C157.804 11.834 154.213 13.6298 150.746 15.6984C146.723 18.1079 143.211 21.2108 139.574 24.1318C133.822 28.7576 128.628 33.8836 124.673 40.1689C123.116 42.6466 120.024 48.7614 120.013 49.0341C120.252 49.0114 120.991 48.6704 121.206 48.5681C124.866 46.9315 128.606 45.4426 132.152 43.6013C141.267 38.8732 150.076 33.6563 157.884 26.9164C161.305 23.9613 164.487 20.7561 167.113 17.0509C167.942 15.8802 168.67 14.63 168.636 13.357ZM151.405 51.4891C151.633 51.4323 156.111 49 157.884 47.8976C165.34 43.2376 172.08 37.6343 178.683 31.8605C182.411 28.5985 185.798 25.0069 188.287 20.688C188.787 19.8242 188.946 19.4377 189.253 18.4716C189.435 17.9033 189.287 17.0509 188.639 17.0509C187.708 17.0509 186.56 17.5055 185.707 18.0284C183.07 19.6537 180.411 21.279 177.967 23.1771C169.011 30.1215 161.032 38.0548 154.281 47.1815C153.372 48.409 151.371 51.4096 151.405 51.4778V51.4891ZM168.965 54.5693C169.056 54.4215 169.113 54.251 169.227 54.1146C170.5 52.6939 171.773 51.2618 173.068 49.8638C173.694 49.1819 173.955 48.4659 173.591 48.0908C173.216 47.693 172.489 47.7839 171.784 48.4659C170.522 49.682 169.318 50.9322 168.124 52.2166C167.783 52.5916 167.511 53.069 167.317 53.5464C166.783 54.8761 167.624 55.9218 169.011 55.6263C169.761 55.4672 170.545 55.2285 171.193 54.8307C172.75 53.876 173.784 53.2508 175.307 52.2393C175.535 52.0915 176.251 51.5914 176.512 51.5005C176.467 52.0802 176.285 52.478 176.149 52.8871C175.569 54.5806 175.921 56.2287 177.637 57.0697C179.82 58.1381 182.036 57.9449 184.264 57.2289C186.423 56.5355 188.31 55.308 190.14 54.0237C191.163 53.3077 194.55 50.6822 195.539 49.9207C195.493 49.8638 195.47 49.7388 195.425 49.682C195.277 49.7616 192.686 51.7506 192.549 51.8415C190.015 53.5691 187.582 55.4672 184.639 56.5014C182.479 57.263 180.32 57.4334 178.126 56.6492C177.081 56.2741 176.637 55.4558 176.887 54.3647C177.296 52.6257 178.103 51.1027 179.331 49.807C179.774 49.341 180.183 48.8296 180.57 48.2954C180.672 48.159 180.683 47.7839 180.604 47.7384C180.433 47.6362 180.161 47.6021 179.956 47.6589C179.774 47.7044 179.626 47.8976 179.456 48.0226C177.751 49.3865 176.08 50.8072 174.319 52.1029C173.091 53.0008 171.75 53.7737 170.409 54.5238C170.011 54.7511 169.465 54.7057 168.988 54.7852C168.965 54.7057 168.943 54.6261 168.92 54.5465L168.965 54.5693ZM196.175 48.9432C196.175 48.9432 197.516 47.5225 197.709 46.9315C197.903 46.3405 197.687 45.9995 197.198 46.2495C196.709 46.4996 195.686 48.4886 196.175 48.9546V48.9432Z" fill="white"/>
</svg>
