<svg width="968" height="781" viewBox="0 0 968 781" fill="none" xmlns="http://www.w3.org/2000/svg">
<mask id="path-1-inside-1_1_113" fill="white">
<path d="M844.192 331.162C822.035 342.276 798.945 350.846 775.175 357.548C756.244 362.894 736.719 364.421 717.194 362.894C708.365 362.215 702.337 365.015 697.923 372.735C694.612 378.59 689.434 383.511 689.688 390.977C689.688 392.165 688.84 393.522 688.16 394.71C682.218 404.467 675.851 413.969 670.503 424.066C666.683 431.447 664.645 439.677 661.08 447.228C657.429 454.864 652.591 461.991 648.855 469.627C645.714 476.075 643.253 482.862 640.621 489.565C635.782 501.783 630.943 514 626.189 526.218C625.595 527.66 625.17 529.357 625.34 530.799C626.444 537.926 623.048 543.356 618.719 548.277C613.625 554.131 611.333 561.088 610.993 568.639C610.654 576.445 608.786 583.572 604.117 590.02C602.844 591.802 602.589 594.347 601.995 596.553C599.788 604.783 597.665 613.013 595.543 621.327C594.1 626.927 592.657 632.527 591.129 638.126C590.195 641.605 589.006 645.084 587.988 648.562C586.969 652.126 585.78 655.604 585.356 659.253C584.168 670.112 583.064 680.973 582.47 691.833C582.215 696.584 583.064 701.42 583.743 706.171C584.762 713.298 585.526 720.51 587.393 727.467C592.996 748.338 603.438 765.816 623.642 775.743C631.113 779.391 638.923 778.797 645.969 774.131C650.298 771.246 654.288 767.768 658.533 764.628C660.316 763.271 662.183 762.168 664.391 761.404C659.721 772.604 650.893 778.713 639.347 780.325C616.087 783.549 603.183 775.404 588.242 752.156C577.291 735.103 573.047 715.589 570.245 695.82C569.566 690.984 568.802 686.148 568.038 681.312C565.491 665.531 570.924 650.853 574.405 635.921C576.103 628.539 577.546 621.073 579.159 613.691C580.093 609.364 581.281 605.037 582.215 600.626C583.319 595.196 584.337 589.766 585.441 584.336C585.78 582.893 586.29 581.366 586.884 580.009C588.582 576.191 590.789 572.457 592.232 568.555C600.382 545.732 608.022 522.739 618.294 500.68C623.982 488.462 626.783 474.802 631.537 462.161C634.424 454.355 638.583 447.058 642.488 439.677C646.139 432.805 650.044 425.678 652.76 418.296C654.204 414.394 654.798 410.576 658.703 408.285C659.637 407.776 660.655 406.588 660.74 405.57C661.674 394.286 669.824 386.395 674.068 376.723C680.435 362.384 681.369 362.045 665.24 361.366C646.733 360.603 628.311 358.482 609.975 356.7C598.939 355.597 587.818 354.494 576.867 352.797C562.096 350.506 549.531 354.833 537.392 363.148C498.596 389.619 459.8 416.006 420.495 441.713C391.123 460.888 360.986 478.79 331.359 497.456C288.233 524.69 245.363 552.434 202.068 579.33C176.685 595.111 149.265 606.48 121.081 616.576C94.5095 626.079 67.5138 631.933 39.3296 631.848C22.436 631.848 6.56118 625.909 -7.87049 617.764C-19.7554 610.892 -24 598.844 -24 585.693C-24 580.093 -17.3784 573.645 -11.7755 573.221C-7.7007 572.882 -5.06905 575.003 -4.4748 579.075C-4.13523 581.366 -4.30502 583.742 -4.30502 586.117C-4.13523 601.219 1.46765 608.007 15.2202 613.861C33.8116 621.667 52.5727 621.073 71.5037 617.34C90.7742 613.522 110.215 609.958 128.976 604.274C144.002 599.692 158.348 592.82 172.44 585.863C228.724 558.289 280.763 523.503 333.311 489.65C381.105 458.852 428.9 428.053 476.609 397.001C496.559 384.02 516.169 370.614 535.949 357.464C536.883 356.785 538.071 356.276 538.75 355.427C539.514 354.409 540.533 352.967 540.278 351.949C540.109 351.1 538.411 350.082 537.307 349.912C519.819 346.943 502.331 344.143 484.844 341.089C473.298 339.052 461.923 336.507 450.462 334.301C436.71 331.671 422.957 328.362 409.035 326.75C392.226 324.799 375.163 323.356 358.269 323.526C342.31 323.696 326.435 325.987 310.56 328.023C297.826 329.72 285.008 331.586 272.698 334.98C244.938 342.446 219.386 355.088 197.738 374.093C190.438 380.456 182.203 387.074 178.807 397.255C178.298 398.867 177.279 400.649 176.006 401.667C161.659 413.46 159.622 429.072 162.508 445.956C163.102 449.689 165.649 452.997 166.838 456.646C167.347 458.258 166.668 460.294 166.583 462.161C164.97 461.991 163.187 462.161 161.659 461.652C151.981 458.597 146.718 451.725 145.19 441.798C144.851 439.847 144.171 438.065 143.747 436.114C142.389 428.987 141.2 422.03 144.766 414.988C146.718 411.254 147.143 406.758 148.925 402.94C150.793 399.037 153.34 395.473 155.971 391.91C159.197 387.583 162.508 383.256 166.158 379.268C168.96 376.214 171.846 372.481 175.412 371.123C181.184 368.833 185.259 365.184 188.994 360.518C190.692 358.482 193.409 357.209 195.786 355.767C201.049 352.543 206.652 349.743 211.661 346.179C223.036 338.119 235.006 332.01 249.268 330.314C259.2 329.126 268.963 325.817 278.725 323.102C296.468 318.096 314.72 315.975 333.056 315.127C362.769 313.684 392.396 315.211 421.599 321.32C440.106 325.138 458.272 330.314 476.779 334.386C493.757 338.034 510.821 341.004 527.884 344.228C529.837 344.567 531.874 344.398 533.657 344.992C547.07 349.743 557.342 344.567 567.953 336.507C594.524 316.399 622.029 297.564 648.77 277.71C690.113 247.082 731.201 216.114 772.119 184.976C778.995 179.801 784.768 173.183 791.135 167.244C792.578 165.886 794.191 164.868 795.719 163.681C796.907 162.747 798.605 161.984 799.199 160.711C802.171 154.772 805.227 148.833 807.519 142.554C809.302 137.633 811.424 133.476 815.753 130.167C819.234 127.537 822.375 124.059 824.837 120.41C831.204 111.162 837.061 101.66 843.089 92.2421C843.258 91.9027 843.513 91.4785 843.768 91.3088C852.597 87.7454 854.549 78.4974 859.982 72.1342C865.415 65.7709 870.254 58.7289 876.366 53.1292C892.496 38.4512 909.135 24.3672 925.689 10.1134C933.923 3.07139 943.856 0.356387 954.382 0.0170124C966.352 -0.407206 971.021 7.14388 966.013 18.0039C958.627 34.209 946.402 46.4265 933.499 58.1349C913.21 76.4612 893.005 94.7874 872.461 112.689C861.765 122.022 849.795 129.913 839.268 139.415C834.175 143.997 830.949 150.869 826.959 156.723C824.158 160.796 821.526 165.038 818.809 169.195C817.706 170.977 816.687 172.844 815.499 174.625C813.971 177.086 812.782 180.14 810.575 181.752C806.415 184.807 804.717 188.964 802.255 193.291C796.907 202.878 790.116 211.702 784.343 221.035C781.372 225.871 779.25 231.301 776.533 236.307C774.496 240.04 772.034 243.434 769.912 247.082C767.704 250.9 765.667 254.718 763.714 258.621C762.95 260.148 762.696 262.014 761.847 263.457C756.414 272.789 750.896 282.207 745.208 291.455C740.878 298.497 736.04 305.2 731.965 312.242C729.673 316.229 728.824 321.066 726.532 325.053C721.693 333.453 716.43 341.683 711.251 349.828C707.771 355.258 709.129 358.227 715.496 358.736C738.332 360.433 760.489 356.954 782.561 351.27C801.152 346.519 818.385 338.459 836.043 331.247C838.42 330.314 841.051 330.144 843.513 329.55C843.598 330.144 843.768 330.653 843.853 331.247L844.192 331.162ZM574.065 338.119C571.264 340.071 569.311 343.295 567.019 345.925C570.415 347.028 573.726 348.894 577.206 349.149C603.268 351.524 629.33 353.646 655.307 355.851C661.504 356.361 667.786 357.124 673.983 357.209C682.558 357.294 684.255 355.342 687.736 347.452C691.132 339.731 695.461 332.435 699.451 324.968C699.791 324.29 700.64 323.95 701.064 323.272C702.932 320.387 704.714 317.502 706.412 314.533C710.317 307.406 714.052 300.109 718.127 292.982C721.268 287.467 725.089 282.292 728.145 276.777C731.201 271.262 733.578 265.323 736.379 259.639C738.501 255.312 742.067 251.324 742.916 246.742C744.019 240.719 747.33 236.731 750.811 232.234C755.735 225.871 759.979 218.914 764.054 211.957C767.025 206.866 769.148 201.266 772.034 194.988C770.506 195.497 769.232 195.751 768.299 196.43C762.526 200.333 756.583 204.151 750.981 208.393C715.496 235.458 680.435 263.033 644.611 289.589L573.98 338.374L574.065 338.119ZM857.181 113.623C857.775 114.217 858.454 114.895 859.048 115.489C861.171 114.301 863.633 113.538 865.33 111.926C891.817 87.1515 918.473 62.5468 944.365 37.1786C950.647 30.985 954.212 21.9915 958.712 14.1011C959.476 12.7436 959.221 9.34982 958.372 8.84076C956.929 7.99232 954.552 8.67107 952.6 8.9256C951.496 9.09529 950.392 9.77404 949.458 10.5376C936.47 21.3976 923.482 32.2576 910.578 43.2025C909.305 44.3054 908.625 46.0871 907.692 47.5295C905.145 51.0929 902.768 54.7412 900.051 58.1349C898.608 59.9167 896.571 61.2742 895.043 62.971C889.61 68.9949 884.176 74.934 878.998 81.2124C876.197 84.691 873.82 88.5938 871.443 92.4118C869.83 95.042 868.896 98.0963 867.198 100.557C864.057 105.054 860.576 109.211 857.266 113.538L857.181 113.623Z"/>
</mask>
<path d="M844.192 331.162C822.035 342.276 798.945 350.846 775.175 357.548C756.244 362.894 736.719 364.421 717.194 362.894C708.365 362.215 702.337 365.015 697.923 372.735C694.612 378.59 689.434 383.511 689.688 390.977C689.688 392.165 688.84 393.522 688.16 394.71C682.218 404.467 675.851 413.969 670.503 424.066C666.683 431.447 664.645 439.677 661.08 447.228C657.429 454.864 652.591 461.991 648.855 469.627C645.714 476.075 643.253 482.862 640.621 489.565C635.782 501.783 630.943 514 626.189 526.218C625.595 527.66 625.17 529.357 625.34 530.799C626.444 537.926 623.048 543.356 618.719 548.277C613.625 554.131 611.333 561.088 610.993 568.639C610.654 576.445 608.786 583.572 604.117 590.02C602.844 591.802 602.589 594.347 601.995 596.553C599.788 604.783 597.665 613.013 595.543 621.327C594.1 626.927 592.657 632.527 591.129 638.126C590.195 641.605 589.006 645.084 587.988 648.562C586.969 652.126 585.78 655.604 585.356 659.253C584.168 670.112 583.064 680.973 582.47 691.833C582.215 696.584 583.064 701.42 583.743 706.171C584.762 713.298 585.526 720.51 587.393 727.467C592.996 748.338 603.438 765.816 623.642 775.743C631.113 779.391 638.923 778.797 645.969 774.131C650.298 771.246 654.288 767.768 658.533 764.628C660.316 763.271 662.183 762.168 664.391 761.404C659.721 772.604 650.893 778.713 639.347 780.325C616.087 783.549 603.183 775.404 588.242 752.156C577.291 735.103 573.047 715.589 570.245 695.82C569.566 690.984 568.802 686.148 568.038 681.312C565.491 665.531 570.924 650.853 574.405 635.921C576.103 628.539 577.546 621.073 579.159 613.691C580.093 609.364 581.281 605.037 582.215 600.626C583.319 595.196 584.337 589.766 585.441 584.336C585.78 582.893 586.29 581.366 586.884 580.009C588.582 576.191 590.789 572.457 592.232 568.555C600.382 545.732 608.022 522.739 618.294 500.68C623.982 488.462 626.783 474.802 631.537 462.161C634.424 454.355 638.583 447.058 642.488 439.677C646.139 432.805 650.044 425.678 652.76 418.296C654.204 414.394 654.798 410.576 658.703 408.285C659.637 407.776 660.655 406.588 660.74 405.57C661.674 394.286 669.824 386.395 674.068 376.723C680.435 362.384 681.369 362.045 665.24 361.366C646.733 360.603 628.311 358.482 609.975 356.7C598.939 355.597 587.818 354.494 576.867 352.797C562.096 350.506 549.531 354.833 537.392 363.148C498.596 389.619 459.8 416.006 420.495 441.713C391.123 460.888 360.986 478.79 331.359 497.456C288.233 524.69 245.363 552.434 202.068 579.33C176.685 595.111 149.265 606.48 121.081 616.576C94.5095 626.079 67.5138 631.933 39.3296 631.848C22.436 631.848 6.56118 625.909 -7.87049 617.764C-19.7554 610.892 -24 598.844 -24 585.693C-24 580.093 -17.3784 573.645 -11.7755 573.221C-7.7007 572.882 -5.06905 575.003 -4.4748 579.075C-4.13523 581.366 -4.30502 583.742 -4.30502 586.117C-4.13523 601.219 1.46765 608.007 15.2202 613.861C33.8116 621.667 52.5727 621.073 71.5037 617.34C90.7742 613.522 110.215 609.958 128.976 604.274C144.002 599.692 158.348 592.82 172.44 585.863C228.724 558.289 280.763 523.503 333.311 489.65C381.105 458.852 428.9 428.053 476.609 397.001C496.559 384.02 516.169 370.614 535.949 357.464C536.883 356.785 538.071 356.276 538.75 355.427C539.514 354.409 540.533 352.967 540.278 351.949C540.109 351.1 538.411 350.082 537.307 349.912C519.819 346.943 502.331 344.143 484.844 341.089C473.298 339.052 461.923 336.507 450.462 334.301C436.71 331.671 422.957 328.362 409.035 326.75C392.226 324.799 375.163 323.356 358.269 323.526C342.31 323.696 326.435 325.987 310.56 328.023C297.826 329.72 285.008 331.586 272.698 334.98C244.938 342.446 219.386 355.088 197.738 374.093C190.438 380.456 182.203 387.074 178.807 397.255C178.298 398.867 177.279 400.649 176.006 401.667C161.659 413.46 159.622 429.072 162.508 445.956C163.102 449.689 165.649 452.997 166.838 456.646C167.347 458.258 166.668 460.294 166.583 462.161C164.97 461.991 163.187 462.161 161.659 461.652C151.981 458.597 146.718 451.725 145.19 441.798C144.851 439.847 144.171 438.065 143.747 436.114C142.389 428.987 141.2 422.03 144.766 414.988C146.718 411.254 147.143 406.758 148.925 402.94C150.793 399.037 153.34 395.473 155.971 391.91C159.197 387.583 162.508 383.256 166.158 379.268C168.96 376.214 171.846 372.481 175.412 371.123C181.184 368.833 185.259 365.184 188.994 360.518C190.692 358.482 193.409 357.209 195.786 355.767C201.049 352.543 206.652 349.743 211.661 346.179C223.036 338.119 235.006 332.01 249.268 330.314C259.2 329.126 268.963 325.817 278.725 323.102C296.468 318.096 314.72 315.975 333.056 315.127C362.769 313.684 392.396 315.211 421.599 321.32C440.106 325.138 458.272 330.314 476.779 334.386C493.757 338.034 510.821 341.004 527.884 344.228C529.837 344.567 531.874 344.398 533.657 344.992C547.07 349.743 557.342 344.567 567.953 336.507C594.524 316.399 622.029 297.564 648.77 277.71C690.113 247.082 731.201 216.114 772.119 184.976C778.995 179.801 784.768 173.183 791.135 167.244C792.578 165.886 794.191 164.868 795.719 163.681C796.907 162.747 798.605 161.984 799.199 160.711C802.171 154.772 805.227 148.833 807.519 142.554C809.302 137.633 811.424 133.476 815.753 130.167C819.234 127.537 822.375 124.059 824.837 120.41C831.204 111.162 837.061 101.66 843.089 92.2421C843.258 91.9027 843.513 91.4785 843.768 91.3088C852.597 87.7454 854.549 78.4974 859.982 72.1342C865.415 65.7709 870.254 58.7289 876.366 53.1292C892.496 38.4512 909.135 24.3672 925.689 10.1134C933.923 3.07139 943.856 0.356387 954.382 0.0170124C966.352 -0.407206 971.021 7.14388 966.013 18.0039C958.627 34.209 946.402 46.4265 933.499 58.1349C913.21 76.4612 893.005 94.7874 872.461 112.689C861.765 122.022 849.795 129.913 839.268 139.415C834.175 143.997 830.949 150.869 826.959 156.723C824.158 160.796 821.526 165.038 818.809 169.195C817.706 170.977 816.687 172.844 815.499 174.625C813.971 177.086 812.782 180.14 810.575 181.752C806.415 184.807 804.717 188.964 802.255 193.291C796.907 202.878 790.116 211.702 784.343 221.035C781.372 225.871 779.25 231.301 776.533 236.307C774.496 240.04 772.034 243.434 769.912 247.082C767.704 250.9 765.667 254.718 763.714 258.621C762.95 260.148 762.696 262.014 761.847 263.457C756.414 272.789 750.896 282.207 745.208 291.455C740.878 298.497 736.04 305.2 731.965 312.242C729.673 316.229 728.824 321.066 726.532 325.053C721.693 333.453 716.43 341.683 711.251 349.828C707.771 355.258 709.129 358.227 715.496 358.736C738.332 360.433 760.489 356.954 782.561 351.27C801.152 346.519 818.385 338.459 836.043 331.247C838.42 330.314 841.051 330.144 843.513 329.55C843.598 330.144 843.768 330.653 843.853 331.247L844.192 331.162ZM574.065 338.119C571.264 340.071 569.311 343.295 567.019 345.925C570.415 347.028 573.726 348.894 577.206 349.149C603.268 351.524 629.33 353.646 655.307 355.851C661.504 356.361 667.786 357.124 673.983 357.209C682.558 357.294 684.255 355.342 687.736 347.452C691.132 339.731 695.461 332.435 699.451 324.968C699.791 324.29 700.64 323.95 701.064 323.272C702.932 320.387 704.714 317.502 706.412 314.533C710.317 307.406 714.052 300.109 718.127 292.982C721.268 287.467 725.089 282.292 728.145 276.777C731.201 271.262 733.578 265.323 736.379 259.639C738.501 255.312 742.067 251.324 742.916 246.742C744.019 240.719 747.33 236.731 750.811 232.234C755.735 225.871 759.979 218.914 764.054 211.957C767.025 206.866 769.148 201.266 772.034 194.988C770.506 195.497 769.232 195.751 768.299 196.43C762.526 200.333 756.583 204.151 750.981 208.393C715.496 235.458 680.435 263.033 644.611 289.589L573.98 338.374L574.065 338.119ZM857.181 113.623C857.775 114.217 858.454 114.895 859.048 115.489C861.171 114.301 863.633 113.538 865.33 111.926C891.817 87.1515 918.473 62.5468 944.365 37.1786C950.647 30.985 954.212 21.9915 958.712 14.1011C959.476 12.7436 959.221 9.34982 958.372 8.84076C956.929 7.99232 954.552 8.67107 952.6 8.9256C951.496 9.09529 950.392 9.77404 949.458 10.5376C936.47 21.3976 923.482 32.2576 910.578 43.2025C909.305 44.3054 908.625 46.0871 907.692 47.5295C905.145 51.0929 902.768 54.7412 900.051 58.1349C898.608 59.9167 896.571 61.2742 895.043 62.971C889.61 68.9949 884.176 74.934 878.998 81.2124C876.197 84.691 873.82 88.5938 871.443 92.4118C869.83 95.042 868.896 98.0963 867.198 100.557C864.057 105.054 860.576 109.211 857.266 113.538L857.181 113.623Z" stroke="#F3EFEB" stroke-opacity="0.1" stroke-width="2" mask="url(#path-1-inside-1_1_113)"/>
</svg>
