<svg width="48" height="48" viewBox="0 0 48 48" fill="none" xmlns="http://www.w3.org/2000/svg">
<path d="M25.125 0.609009C15.5055 0.609009 6 7.02151 6 17.4C6 24 9.7125 27.75 11.9625 27.75C12.891 27.75 13.425 25.1625 13.425 24.432C13.425 23.5605 11.2035 21.7035 11.2035 18.075C11.2035 10.5375 16.941 5.19301 24.366 5.19301C30.75 5.19301 35.475 8.82151 35.475 15.4875C35.475 20.466 33.4785 29.8035 27.009 29.8035C24.675 29.8035 22.677 28.116 22.677 25.698C22.677 22.1535 25.152 18.723 25.152 15.066C25.152 8.86051 16.3485 9.98551 16.3485 17.4855C16.3485 19.0605 16.545 20.8035 17.2485 22.239C15.954 27.8085 13.311 36.105 13.311 41.8425C13.311 43.614 13.5645 45.3585 13.7325 47.13C14.0505 47.487 13.8915 47.4495 14.379 47.271C19.104 40.8015 18.936 39.537 21.0735 31.071C22.227 33.2655 25.2075 34.446 27.57 34.446C37.5255 34.446 41.9985 24.7425 41.9985 15.996C41.9985 6.68701 33.954 0.612009 25.1235 0.612009L25.125 0.609009Z" fill="white"/>
</svg>
